# xmcd CD database file
# Copyright (C) 1996 Ti Kan
#
# Track frame offsets:
# 	150
# 	11288
# 	21535
# 	29348
# 	38063
# 	46153
# 	55240
# 	63158
# 	71750
# 	86723
#
# Disc length: 1302 seconds
#
# Revision: 1
# Processed by: cddbd v1.4b41PL1 Copyright (c) Steve Scherf et al.
# Submitted via: DiscPlay 3.4.1
#
DISCID=7d05140a
DTITLE=Roger Miller - Golden Hits
DYEAR=1900
DGENRE=
TTITLE0=King Of The Road
TTITLE1=Engine Engine #9
TTITLE2=Dang Me
TTITLE3=England Swings
TTITLE4=In The Summertime
TTITLE5=Chug-A-Lug
TTITLE6=Do-Wacka-Do
TTITLE7=You Can't Roller Skate In A Buffalo Herd
TTITLE8=Me and Bobbie McGee
TTITLE9=Husbands and Wives
EXTD=
EXTT0=
EXTT1=
EXTT2=
EXTT3=
EXTT4=
EXTT5=
EXTT6=
EXTT7=
EXTT8=
EXTT9=
PLAYORDER=
